<?xml version="1.0" encoding="iso-8859-1"?>
<!-- Uploaded to: SVG Repo, www.svgrepo.com, Generator: SVG Repo Mixer Tools -->
<svg height="800px" width="800px" version="1.1" id="Layer_1" xmlns="http://www.w3.org/2000/svg" xmlns:xlink="http://www.w3.org/1999/xlink" 
	 viewBox="0 0 514.4 514.4" xml:space="preserve">
<path style="fill:#DD2C00;" d="M409.533,278.4c4.4,0,7.6,3.2,6.8,7.6l-36.8,215.6c-0.8,4.4-4.8,8.8-9.2,8.8h-225.2
	c-4.4,0-8.8-4.4-9.2-8.8l-3.2-19.2l-30-176l-3.6-20.4c-0.8-4.4,2.4-7.6,6.8-7.6C105.933,278.4,409.533,278.4,409.533,278.4z"/>
<g>
	<polygon style="fill:#FFB300;" points="404.733,106.8 401.933,108.8 401.933,106 391.133,102.8 385.533,122 339.933,276.8 
		381.533,276 409.133,181.6 409.133,181.2 409.133,181.2 411.133,175.6 429.133,114 	"/>
	<polygon style="fill:#FFB300;" points="443.933,96.4 411.133,176.4 409.133,181.2 409.133,181.2 409.133,181.6 381.533,276 
		413.133,278 480.733,111.2 	"/>
	<polygon style="fill:#FFB300;" points="386.733,27.6 374.733,68.4 363.133,107.6 351.133,149.2 350.733,149.2 333.533,276.8 
		333.533,278 339.933,278 339.933,276.8 385.533,122 391.133,102.8 401.933,106 404.733,106.8 424.733,38.8 	"/>
	<polygon style="fill:#FFB300;" points="328.733,15.6 321.933,66.4 320.333,78.8 330.333,79.6 325.533,159.2 318.333,276.8 
		318.333,278 333.533,278 333.533,276.8 350.733,149.2 359.133,86.8 367.933,20.8 	"/>
	<polygon style="fill:#FFB300;" points="320.333,78.8 318.733,78.8 290.733,77.2 288.333,118.8 280.733,240 280.733,240 
		278.733,276.8 318.333,276.8 325.533,159.2 330.333,79.6 	"/>
	<polygon style="fill:#FFB300;" points="282.333,4 279.533,64.8 276.333,134.8 280.733,240 288.333,118.8 290.733,77.2 
		318.733,78.8 319.133,66.4 321.933,5.6 	"/>
	<polygon style="fill:#FFB300;" points="238.733,63.2 235.533,40.4 231.533,21.6 193.933,26.4 196.333,47.2 206.733,127.2 
		223.533,125.2 229.933,185.2 239.933,276.8 239.933,278.4 265.933,278 265.933,275.2 	"/>
	<polygon style="fill:#FFB300;" points="276.333,134.8 273.133,64.4 270.333,4 230.733,5.6 231.133,21.2 231.533,21.6 233.133,21.2 
		235.533,40.4 240.733,63.2 238.733,63.2 265.933,275.2 265.933,278 278.733,276.8 280.733,240 280.733,240 	"/>
	<polygon style="fill:#FFB300;" points="229.933,185.2 223.533,125.2 206.733,127.2 183.933,129.6 192.333,207.6 199.933,276.8 
		239.933,276.8 	"/>
	<polygon style="fill:#FFB300;" points="206.733,127.2 196.333,47.2 196.333,46.8 191.133,18 151.933,25.2 158.333,60 158.333,60 
		173.933,147.2 175.133,150.4 192.333,207.6 183.933,129.6 	"/>
	<polygon style="fill:#FFB300;" points="199.933,276.8 192.333,207.6 175.133,150.4 174.733,151.6 173.933,147.2 147.133,59.6 
		147.133,59.6 139.933,36.4 101.933,48 118.333,102.4 145.133,190.4 144.733,190.4 177.933,276.8 177.933,278.4 	"/>
	<polygon style="fill:#FFB300;" points="144.733,190.4 116.733,117.2 99.133,70.8 61.933,84.8 106.333,201.2 107.133,203.2 
		134.333,275.2 177.933,276.8 	"/>
	<polygon style="fill:#FFB300;" points="134.333,275.2 107.133,203.2 105.933,214.8 106.333,201.2 69.133,134 34.333,153.2 
		99.133,271.2 99.133,271.6 99.133,271.6 103.133,275.2 105.933,278.4 134.333,278 134.333,278 	"/>
</g>
<path d="M280.733,244c-2,0-4-1.6-4-4l-10.4-232l-31.6,1.6l0.4,11.6c0,2.4-1.6,4-4,4c-2,0-4-1.6-4-4l-0.8-15.6c0-2.4,1.6-4,4-4
	l39.6-1.6c2,0,4,1.6,4,4l10.8,236C285.133,242,283.133,244,280.733,244C281.133,244,281.133,244,280.733,244z"/>
<path d="M276.333,138.8C275.933,138.8,275.933,138.8,276.333,138.8c-2.4,0-4-2-4-4l6.4-130.8c0-1.2,0.4-2,1.2-2.8s2-1.2,2.8-1.2
	l39.6,2c2.4,0,4,2,4,4l-3.6,72.8c0,2.4-2,4-4,4c-2.4,0-4-2-4-4l3.2-69.2l-31.6-1.6l-6,126.8
	C279.933,136.8,278.333,138.8,276.333,138.8z"/>
<path d="M413.133,282c-0.4,0-1.2,0-1.6-0.4c-2-0.8-3.2-3.2-2.4-5.2l66-162.8l-29.2-12l-32.8,81.2c-0.8,2-3.2,3.2-5.2,2.4
	c-2-0.8-3.2-3.2-2.4-5.2l34.4-84.8c0.8-2,3.2-3.2,5.2-2.4l36.8,14.8c0.8,0.4,1.6,1.2,2,2s0.4,2,0,3.2l-67.6,166.4
	C415.933,280.8,414.733,282,413.133,282z"/>
<path d="M350.733,153.2c-0.4,0-0.8,0-1.2,0c-2-0.8-3.2-2.8-2.8-4.8l35.6-121.2c0.8-2,2.8-3.2,4.8-2.8l38,11.2c2,0.8,3.2,2.8,2.8,4.8
	l-20,67.6c-0.8,2-2.8,3.2-4.8,2.8c-2-0.8-3.2-2.8-2.8-4.8l18.8-64l-30.4-8.8l-34.4,117.6C354.333,152,352.733,153.2,350.733,153.2z"
	/>
<path d="M339.933,280.8c-0.4,0-0.8,0-1.2,0c-2-0.8-3.2-2.8-2.8-4.8l51.2-174.4c0.8-2,2.8-3.2,4.8-2.8l38,11.2c1.2,0.4,2,0.8,2.4,2
	s0.8,2,0.4,3.2l-20,67.2l0,0l-28,94.4c-0.8,2-2.8,3.2-4.8,2.8c-2-0.8-3.2-2.8-2.8-4.8l27.6-94.4V180l18.8-63.2l-30.4-8.8l-50,170.4
	C343.133,280,341.533,280.8,339.933,280.8z"/>
<path d="M333.533,280.8h-0.4c-2-0.4-3.6-2.4-3.6-4.4l34-252l-31.6-4.4l-8,59.2c-0.4,2-2.4,3.6-4.4,3.6c-2-0.4-3.6-2.4-3.6-4.4
	l8.4-63.2c0-1.2,0.8-2,1.6-2.8s2-0.8,2.8-0.8l39.2,5.2c2,0.4,3.6,2.4,3.6,4.4l-34.8,256C337.133,279.6,335.533,280.8,333.533,280.8z
	"/>
<path d="M102.733,282c-1.6,0-2.8-0.8-3.6-2l-3.6-6.4v-0.4l-64.8-118c-0.4-0.8-0.8-2-0.4-3.2c0.4-1.2,0.8-2,2-2.4l34.8-19.2
	c2-1.2,4.4-0.4,5.6,1.6l37.2,67.2c1.2,2,0.4,4.4-1.6,5.6s-4.4,0.4-5.6-1.6l-35.2-63.6l-28,15.2l62.8,114.8v0.4l3.6,6
	c1.2,2,0.4,4.4-1.6,5.6C104.333,281.6,103.533,282,102.733,282z"/>
<path d="M177.533,280.8c-1.6,0-3.2-0.8-3.6-2.4L96.733,76l-29.6,11.2l71.2,186.4c0.8,2-0.4,4.4-2.4,5.2c-2,0.8-4.4-0.4-5.2-2.4
	L58.333,86c-0.4-0.8-0.4-2,0-3.2c0.4-0.8,1.2-1.6,2.4-2l37.2-14c2-0.8,4.4,0.4,5.2,2.4l78.4,206c0.8,2-0.4,4.4-2.4,5.2
	C178.733,280.8,178.333,280.8,177.533,280.8z"/>
<path d="M145.133,194.4c-1.6,0-3.2-1.2-4-2.8l-43.2-142.4c-0.8-2,0.4-4.4,2.8-4.8l38-11.6c2-0.8,4.4,0.4,4.8,2.8l6.8,22.8
	c0,0,0,0,0,0.4l26.8,87.6c0.8,2-0.4,4.4-2.8,4.8c-2,0.8-4.4-0.4-4.8-2.8l-26.8-87.6c0,0,0,0,0-0.4l-6-19.2l-30.4,9.2l42,138.8
	c0.8,2-0.4,4.4-2.8,4.8C145.933,194.4,145.533,194.4,145.133,194.4z"/>
<path d="M192.333,211.6c-1.6,0-3.2-1.2-4-2.8l-17.6-57.2c-0.8-2,0.4-4.4,2.8-4.8c2-0.8,4.4,0.4,4.8,2.8l17.6,57.2
	c0.8,2-0.4,4.4-2.8,4.8C193.133,211.6,192.733,211.6,192.333,211.6z"/>
<path d="M174.733,155.6c-2,0-3.6-1.2-4-3.2l-0.8-4l-15.6-87.2v-0.4l-6.4-34.4c-0.4-2,1.2-4.4,3.2-4.8l39.2-7.2c1.2,0,2,0,2.8,0.8
	s1.6,1.6,1.6,2.4l5.2,28.8c0.4,2-1.2,4.4-3.2,4.8s-4.4-1.2-4.8-3.2l-4.4-24.8l-31.2,5.6l5.6,30.8V60l16.4,91.2
	c0.4,2-1.2,4.4-3.2,4.8C175.133,155.2,175.133,155.6,174.733,155.6z"/>
<path d="M265.933,279.2c-2,0-3.6-1.6-4-3.6l-32.4-250l-31.6,4l12.4,96.8c0.4,2-1.2,4-3.6,4.4c-2,0.4-4-1.2-4.4-3.6l-13.2-100.8
	c0-1.2,0-2,0.8-2.8s1.6-1.2,2.8-1.6l39.2-5.2c1.2,0,2,0,2.8,0.8s1.2,1.6,1.6,2.8l32.8,254c0.4,2-1.2,4-3.6,4.4
	C266.333,279.2,266.333,279.2,265.933,279.2z"/>
<path d="M239.933,280.8c-2,0-3.6-1.6-4-3.6l-16-147.6l-31.6,3.2l15.6,143.2c0.4,2-1.2,4-3.6,4.4c-2,0.4-4-1.2-4.4-3.6l-16-147.2
	c-0.4-2,1.2-4,3.6-4.4l39.6-4.4c1.2,0,2,0,2.8,0.8s1.2,1.6,1.6,2.8l16.4,151.6c0.4,2-1.2,4-3.6,4.4
	C240.333,280.8,239.933,280.8,239.933,280.8z"/>
<path d="M318.333,280.8L318.333,280.8c-2.4,0-4-2-4-4.4l11.6-193.6l-31.6-2l-12,196c0,2.4-2,4-4.4,3.6c-2.4,0-4-2-3.6-4.4l12-200
	c0-2.4,2-4,4.4-3.6l39.6,2.4c1.2,0,2,0.4,2.8,1.2s1.2,2,1.2,2.8l-12,197.6C322.333,279.2,320.333,280.8,318.333,280.8z"/>
<path d="M370.333,514.4h-225.2c-6.8,0-12.4-6.4-13.2-12l-36.4-215.6c-0.4-3.2,0.4-6.4,2.4-8.4c2-2.4,5.2-3.6,8.4-3.6h303.6
	c3.6,0,6.4,1.2,8.4,3.6s2.8,5.2,2.4,8.4l-36.8,215.6C382.733,508.4,377.133,514.4,370.333,514.4z M105.933,282.4
	c-1.2,0-2,0.4-2.4,0.8c-0.4,0.8-0.4,1.6-0.4,2l36.4,215.6c0.4,2.8,3.2,5.6,5.2,5.6h225.2c2,0,4.8-2.8,5.2-5.6l36.8-215.6
	c0-0.4,0-1.6-0.4-2s-1.2-0.8-2.4-0.8H105.933z"/>
<path d="M408.333,310.4h-244c-2.4,0-4-1.6-4-4s1.6-4,4-4h244c2.4,0,4,1.6,4,4S410.333,310.4,408.333,310.4z"/>
<path d="M132.333,310.4h-29.2c-2.4,0-4-1.6-4-4s1.6-4,4-4h29.2c2.4,0,4,1.6,4,4S134.333,310.4,132.333,310.4z"/>
<path d="M380.333,486.4h-188c-2.4,0-4-1.6-4-4s1.6-4,4-4h188c2.4,0,4,1.6,4,4S382.333,486.4,380.333,486.4z"/>
<path d="M160.333,486.4h-27.6c-2.4,0-4-1.6-4-4s1.6-4,4-4h27.6c2.4,0,4,1.6,4,4S162.333,486.4,160.333,486.4z"/>
</svg>