<!DOCTYPE svg PUBLIC "-//W3C//DTD SVG 1.1//EN" "http://www.w3.org/Graphics/SVG/1.1/DTD/svg11.dtd">
<!-- Uploaded to: SVG Repo, www.svgrepo.com, Transformed by: SVG Repo Mixer Tools -->
<svg height="800px" width="800px" version="1.1" id="Layer_1" xmlns="http://www.w3.org/2000/svg" xmlns:xlink="http://www.w3.org/1999/xlink" viewBox="0 0 511.986 511.986" xml:space="preserve" fill="#000000">
<g id="SVGRepo_bgCarrier" stroke-width="0"/>
<g id="SVGRepo_tracerCarrier" stroke-linecap="round" stroke-linejoin="round"/>
<g id="SVGRepo_iconCarrier"> <path style="fill:#fcae54;" d="M218.667,245.322c-47.092,0-85.341-38.327-85.341-85.326c0-47.171,38.249-85.326,85.341-85.326 c46.999,0,85.325,38.155,85.325,85.326C303.991,206.995,265.665,245.322,218.667,245.322z"/> <path style="fill:#E9573F;" d="M218.667,63.999c-53.092,0-95.998,42.999-95.998,95.997c0,52.999,42.905,95.997,95.998,95.997 c52.999,0,95.997-42.998,95.997-95.997C314.664,106.998,271.665,63.999,218.667,63.999z M292.491,149.324h-48.169l34.093-34.155 C285.914,125.169,290.741,136.825,292.491,149.324z M229.322,85.998c12.344,1.828,24,6.672,34,14.172l-34,33.999L229.322,85.998 L229.322,85.998z M207.995,134.169l-34.078-33.999c10-7.5,21.656-12.344,34.078-14.172V134.169z M207.995,233.822 c-12.422-1.656-24.078-6.5-34.078-14l34.078-34.155V233.822z M229.322,185.667l34,34.155c-10,7.5-21.656,12.344-34,14 L229.322,185.667L229.322,185.667z M158.824,115.169l33.999,34.155h-48.077C146.497,136.825,151.324,125.169,158.824,115.169z M144.747,170.668h48.077l-33.999,33.999C151.324,194.667,146.497,182.995,144.747,170.668z M278.415,204.667l-34.093-33.999h48.169 C290.741,182.995,285.914,194.667,278.415,204.667z"/> <polygon style="fill:#E6E9ED;" points="367.99,511.986 218.667,511.986 197.324,149.996 389.318,149.996 "/> <g> <path style="fill:#CCD1D9;" d="M335.914,501.315c-5.844,0-10.594,4.672-10.594,10.671h21.25 C346.569,505.987,341.819,501.315,335.914,501.315z"/> <path style="fill:#CCD1D9;" d="M293.241,501.315c-5.828,0-10.576,4.672-10.576,10.671h21.248 C303.914,505.987,299.164,501.315,293.241,501.315z"/> <path style="fill:#CCD1D9;" d="M250.665,501.315c-5.921,0-10.671,4.672-10.671,10.671h21.328 C261.322,505.987,256.493,501.315,250.665,501.315z"/> </g> <path style="fill:#434A54;" d="M367.911,10.672c0-6-4.75-10.672-10.672-10.672c-5.42,0-9.92,4-10.498,9.328h-0.078l-32,255.993 l21.156,2.672L367.817,12l0,0C367.911,11.5,367.911,11,367.911,10.672z"/> <polygon style="fill:#fcae54;" points="370.49,469.316 382.99,255.993 203.495,255.993 216.072,469.316 "/> <g> <path style="fill:#E9573F;" d="M271.915,373.318c0,5.844-4.75,10.672-10.672,10.672c-5.828,0-10.578-4.828-10.578-10.672 c0-6,4.75-10.656,10.578-10.656C267.165,362.662,271.915,367.318,271.915,373.318z"/> <path style="fill:#E9573F;" d="M261.322,415.989c0,5.828-4.828,10.672-10.656,10.672c-5.921,0-10.671-4.844-10.671-10.672 c0-5.999,4.75-10.671,10.671-10.671C256.493,405.318,261.322,409.99,261.322,415.989z"/> </g> <g style="opacity:0.2;"> <polygon style="fill:#FFFFFF;" points="367.99,149.996 346.664,511.986 367.99,511.986 389.318,149.996 "/> </g> </g>
</svg>